# xmcd
#
# Track frame offsets:
#	150
#	17565
#	33525
#	50545
#	67932
#	81422
#	95175
#	113010
#	129412
#	147769
#	166094
#	183483
#	199461
#	216421
#	233801
#	247336
#	261136
#	279026
#	295481
#	313816
#
# Disc length: 4426 seconds
#
# Revision: 1
# Processed by: cddbd v1.5.2PL0 Copyright (c) Steve Scherf et al.
# Submitted via: audiograbber 1.83.01
#
DISCID=31114814
DTITLE=Various Artist - CHM9903
DYEAR=1999
DGENRE=
TTITLE0=Brooks And Dunn - I Can't Get Over You vocal
TTITLE1=Tim McGraw - Meanwhile vocal
TTITLE2=Faith Hill - Love Ain't Like That vocal
TTITLE3=Ty Herndon - Hands Of A Working Man vocal
TTITLE4=Patty Loveless - Can't Get Enough vocal
TTITLE5=Vince Gill - Don't Come Cryin To Me vocal
TTITLE6=Mark Wills - Wish You Were Here vocal
TTITLE7=Linda Davis - I'm Yours vocal
TTITLE8=The Warren Brothers - A Better Man vocal
TTITLE9=Chad Brock - Ordinary Life vocal
TTITLE10=Brooks And Dunn - I Can't Get Over You
TTITLE11=Tim McGraw - Meanwhile
TTITLE12=Faith Hill - Love Ain't Like That
TTITLE13=Ty Herndon - Hands Of A Working Man
TTITLE14=Patty Loveless - Can't Get Enough
TTITLE15=Vince Gill - Don't Come Cryin To Me
TTITLE16=Mark Wills - Wish You Were Here
TTITLE17=LInda Davis - I'm Yours
TTITLE18=The Warren Brothers - A Better Man
TTITLE19=Chad Brock - Ordinary Life
EXTD=
EXTT0=
EXTT1=
EXTT2=
EXTT3=
EXTT4=
EXTT5=
EXTT6=
EXTT7=
EXTT8=
EXTT9=
EXTT10=
EXTT11=
EXTT12=
EXTT13=
EXTT14=
EXTT15=
EXTT16=
EXTT17=
EXTT18=
EXTT19=
PLAYORDER=
